# xmcd
#
# Track frame offsets:
#	182
#	14545
#	25877
#	38652
#	47587
#	61252
#	72570
#	86850
#	99330
#	110267
#	120492
#	131075
#	143285
#	156377
#	170517
#	184735
#
# Disc length: 2654 seconds
#
# Revision: 0
# Processed by: cddbd v1.5.1PL2 Copyright (c) Steve Scherf et al.
# Submitted via: EasyCDDAExtractor 10.0.1.1
#
DISCID=d40a5c10
DTITLE=Tohama - Ses Plus Grands Succès
DYEAR=1995
DGENRE=Rétro
TTITLE0=Ah Que Bella Combinazione
TTITLE1=Valentino
TTITLE2=Dans La Balançoire
TTITLE3=Oui, oui,oui
TTITLE4=Mon Amour A Moi
TTITLE5=Adonis
TTITLE6=Maître Pierre
TTITLE7=Annelise
TTITLE8=1,2,3,4,5,6,7 Violette
TTITLE9=Itsy Bitsy...Bikini
TTITLE10=Tzena, Tzena
TTITLE11=Bise Bise Polka
TTITLE12=Viens Dans Ma Maison
TTITLE13=Malaguena
TTITLE14=Li P'tit Banc (Wallon)
TTITLE15=Leyiz M'plorer (Wallon)
EXTD=
EXTT0=
EXTT1=
EXTT2=
EXTT3=
EXTT4=
EXTT5=
EXTT6=
EXTT7=
EXTT8=
EXTT9=
EXTT10=
EXTT11=
EXTT12=
EXTT13=
EXTT14=
EXTT15=
PLAYORDER=
